HIERARCHY
ROOT turn
{
	OFFSET 0.000000 0.000000 0.000000
	CHANNELS 6 Xposition Yposition Zposition Xrotation Yrotation Zrotation
	JOINT Spine_01
	{
		OFFSET -0.011116 138.184219 -44.820721
		CHANNELS 3 Xrotation Yrotation Zrotation
		JOINT Spine_02
		{
			OFFSET -0.655824 -4.174026 28.050629
			CHANNELS 3 Xrotation Yrotation Zrotation
			JOINT Spine_03
			{
				OFFSET -0.237046 -2.919235 35.457001
				CHANNELS 3 Xrotation Yrotation Zrotation
				JOINT Spine_04
				{
					OFFSET 0.889292 1.210632 39.259594
					CHANNELS 3 Xrotation Yrotation Zrotation
					JOINT Neck_Base
					{
						OFFSET 1.634120 3.585724 29.392281
						CHANNELS 3 Xrotation Yrotation Zrotation
						JOINT Neck_01
						{
							OFFSET -0.186269 17.878098 9.474930
							CHANNELS 3 Xrotation Yrotation Zrotation
							JOINT Neck_02
							{
								OFFSET -0.636423 15.285126 15.310822
								CHANNELS 3 Xrotation Yrotation Zrotation
								JOINT Head
								{
									OFFSET -0.797410 15.520340 15.523972
									CHANNELS 3 Xrotation Yrotation Zrotation
									JOINT L_Ear
									{
										OFFSET 7.924968 16.730682 8.946037
										CHANNELS 3 Xrotation Yrotation Zrotation
										End Site
										{
											OFFSET 5.445574 6.659241 -14.521828
										}
									}
									JOINT R_Ear
									{
										OFFSET -7.924048 16.730759 8.946800
										CHANNELS 3 Xrotation Yrotation Zrotation
										End Site
										{
											OFFSET 5.447374 -6.659195 14.521179
										}
									}
									JOINT Jaw
									{
										OFFSET 0.000531 -4.124405 8.573021
										CHANNELS 3 Xrotation Yrotation Zrotation
										End Site
										{
											OFFSET -0.000208 16.732620 -2.214172
										}
									}
								}
							}
						}
					}
					JOINT R_Scapula
					{
						OFFSET -6.319964 17.540894 8.039215
						CHANNELS 3 Xrotation Yrotation Zrotation
						JOINT R_Shoulder
						{
							OFFSET -2.784943 -35.524193 22.191368
							CHANNELS 3 Xrotation Yrotation Zrotation
							JOINT R_Front_UpperLeg
							{
								OFFSET -4.213358 -27.349007 -18.519814
								CHANNELS 3 Xrotation Yrotation Zrotation
								JOINT R_Front_LowerLeg
								{
									OFFSET 1.250661 -39.630783 4.010437
									CHANNELS 3 Xrotation Yrotation Zrotation
									JOINT R_Front_Ankle
									{
										OFFSET 0.910205 -30.625179 0.296043
										CHANNELS 3 Xrotation Yrotation Zrotation
										JOINT R_Front_Hoof
										{
											OFFSET 0.000359 -9.177296 4.105247
											CHANNELS 3 Xrotation Yrotation Zrotation
											End Site
											{
												OFFSET -0.000680 0.000391 -10.053650
											}
										}
									}
								}
							}
						}
					}
					JOINT L_Scapula
					{
						OFFSET 7.171810 17.540833 7.289146
						CHANNELS 3 Xrotation Yrotation Zrotation
						JOINT L_Shoulder
						{
							OFFSET 4.182635 -35.634430 21.790977
							CHANNELS 3 Xrotation Yrotation Zrotation
							JOINT L_Front_UpperLeg
							{
								OFFSET 0.914174 -26.908463 -19.590637
								CHANNELS 3 Xrotation Yrotation Zrotation
								JOINT L_Front_LowerLeg
								{
									OFFSET -1.171272 -39.640282 -3.937374
									CHANNELS 3 Xrotation Yrotation Zrotation
									JOINT L_Front_Ankle
									{
										OFFSET -0.900420 -30.476368 -3.031116
										CHANNELS 3 Xrotation Yrotation Zrotation
										JOINT L_Front_Hoof
										{
											OFFSET 0.004621 -9.222168 4.003235
											CHANNELS 3 Xrotation Yrotation Zrotation
											End Site
											{
												OFFSET 0.010524 -0.111704 10.052948
											}
										}
									}
								}
							}
						}
					}
				}
			}
		}
		JOINT L_Hip
		{
			OFFSET 14.887412 -7.729385 -12.131317
			CHANNELS 3 Xrotation Yrotation Zrotation
			JOINT L_Back_UpperLeg
			{
				OFFSET 0.000000 -34.478554 8.440948
				CHANNELS 3 Xrotation Yrotation Zrotation
				JOINT L_Back_LowerLeg
				{
					OFFSET -3.196042 -42.364529 -14.576771
					CHANNELS 3 Xrotation Yrotation Zrotation
					JOINT L_Back_Ankle
					{
						OFFSET 1.655677 -33.756073 12.931870
						CHANNELS 3 Xrotation Yrotation Zrotation
						JOINT L_Back_Hoof
						{
							OFFSET 0.582795 -11.035064 3.767307
							CHANNELS 3 Xrotation Yrotation Zrotation
							End Site
							{
								OFFSET 1.784864 0.000009 11.537727
							}
						}
					}
				}
			}
		}
		JOINT R_Hip
		{
			OFFSET -14.887403 -7.729263 -12.131310
			CHANNELS 3 Xrotation Yrotation Zrotation
			JOINT R_Back_UpperLeg
			{
				OFFSET 0.000003 -35.225868 4.378204
				CHANNELS 3 Xrotation Yrotation Zrotation
				JOINT R_Back_LowerLeg
				{
					OFFSET 3.960886 -39.350430 -21.290859
					CHANNELS 3 Xrotation Yrotation Zrotation
					JOINT R_Back_Ankle
					{
						OFFSET -0.902668 -36.023087 3.312645
						CHANNELS 3 Xrotation Yrotation Zrotation
						JOINT R_Back_Hoof
						{
							OFFSET -0.767580 -11.035026 3.734016
							CHANNELS 3 Xrotation Yrotation Zrotation
							End Site
							{
								OFFSET 2.350781 -0.000008 -11.435806
							}
						}
					}
				}
			}
		}
		JOINT Tail_01
		{
			OFFSET 0.000001 9.427826 -23.815647
			CHANNELS 3 Xrotation Yrotation Zrotation
			JOINT Tail_02
			{
				OFFSET 0.000002 -13.400024 -17.562370
				CHANNELS 3 Xrotation Yrotation Zrotation
				JOINT Tail_03
				{
					OFFSET -0.000001 -23.344002 -0.528130
					CHANNELS 3 Xrotation Yrotation Zrotation
					JOINT Tail_04
					{
						OFFSET -0.000001 -22.903725 3.851234
						CHANNELS 3 Xrotation Yrotation Zrotation
						JOINT Tail_05
						{
							OFFSET -0.000002 -22.818230 5.034645
							CHANNELS 3 Xrotation Yrotation Zrotation
							End Site
							{
								OFFSET -0.000001 -5.034756 -22.818192
							}
						}
					}
				}
			}
		}
	}
}
MOTION
Frames: 7
Frame Time: 0.033333
0.000000 0.000000 0.000000 0.000039 -56.250009 0.000033 0.000007 14.037483 -5.355255 2.142103 -5.967302 3.606821 -0.105415 -4.091221 1.970300 -1.324234 0.353313 0.072590 1.517100 9.449468 0.524111 -2.815399 -18.232072 -3.165048 0.429250 -20.525714 -3.039013 2.027303 -9.185301 4.811988 -0.006506 -0.003439 -0.029857 -0.006507 -0.003406 -0.029848 -0.006549 -0.003419 -0.029850 0.006669 -0.938454 2.189042 -0.058618 0.006725 0.003412 -5.461165 1.897443 -1.238971 22.447225 0.558753 -0.567174 -8.225376 -2.135792 7.598017 -0.000005 -0.000030 0.000016 0.307213 0.046534 -0.053738 -0.547904 -0.043602 0.033904 -1.048260 11.294502 -1.167540 -0.000009 0.000079 0.000009 0.932301 12.793821 1.476236 0.000029 0.000057 -0.000032 -0.000017 0.000004 -0.000020 1.670554 -21.430752 8.227920 8.410507 -0.244151 -1.424925 -7.402414 27.026335 -1.334177 -0.000008 0.000018 -0.000013 -0.000020 -0.000001 -0.000017 -17.624516 -2.498657 7.159167 -1.518119 0.014308 -0.301327 29.456178 16.890274 7.522305 0.000006 -0.000075 0.000030 0.216660 -0.619839 0.210770 2.067954 -1.100751 2.262385 -0.957456 0.046764 0.733924 -0.553346 0.059212 0.312863 0.000025 0.000002 -0.000003 
0.000000 0.000000 0.000000 0.000041 -57.649044 0.000034 0.091293 14.455578 -5.254418 1.925160 -5.954637 3.546725 -0.120312 -4.546007 1.628966 -1.188453 -0.098640 0.049438 1.520701 10.369868 0.347191 -2.762302 -17.861626 -3.147511 0.450665 -20.324712 -2.817082 2.258908 -9.571858 5.002450 -0.006500 -0.003440 -0.029872 -0.006509 -0.003407 -0.029859 -0.006536 -0.003419 -0.029850 0.030722 -0.907177 2.110567 -0.117320 0.013455 0.006834 -7.818331 2.268456 -0.198274 26.413376 0.632408 -0.688021 -6.870630 -2.619132 7.002356 -0.000004 -0.000043 0.000020 0.255999 0.036877 -0.037442 -0.429746 -0.034171 0.026632 -0.989158 11.600969 -0.162497 -0.000008 0.000082 0.000008 0.904004 14.313092 0.712544 0.000027 0.000062 -0.000033 -0.000017 0.000009 -0.000034 1.644024 -21.918810 6.848264 7.789826 -0.219003 -1.321104 -7.437379 28.510782 -0.012106 -0.000008 0.000028 -0.000016 -0.000022 0.000002 -0.000030 -19.334433 -6.817409 7.679064 4.786722 0.007199 0.950870 23.197216 17.712798 5.895977 0.000007 -0.000079 0.000029 0.337997 -0.813324 0.277494 1.729154 -1.891934 3.858793 -1.048384 0.080256 1.275378 -0.584674 0.105613 0.558867 0.000025 0.000013 -0.000006 
0.000000 0.000000 0.000000 0.000042 -59.032977 0.000036 0.192610 14.899735 -4.959252 1.491365 -5.802716 3.384285 -0.130069 -5.042969 1.148224 -0.898007 -0.692937 0.017920 1.640894 10.900896 0.265179 -2.599437 -17.505532 -3.033358 0.478760 -19.933583 -2.503565 2.159546 -9.727631 5.080616 -0.006495 -0.003443 -0.029889 -0.006517 -0.003408 -0.029871 -0.006531 -0.003419 -0.029850 0.089665 -0.819006 1.890445 -0.260381 0.029829 0.015201 -10.635115 2.205108 0.219467 31.166177 0.709407 -0.839112 -5.239396 -2.915330 6.562373 -0.000006 -0.000058 0.000028 0.334621 0.039290 -0.033642 -0.594883 -0.047360 0.036792 -0.702471 11.503806 0.621271 -0.000008 0.000083 0.000009 0.794085 16.240014 0.154269 0.000028 0.000066 -0.000034 -0.000017 0.000005 -0.000046 1.739794 -22.101317 5.310357 6.553518 -0.172266 -1.113545 -7.107395 29.643810 1.252330 -0.000008 0.000036 -0.000019 -0.000024 0.000005 -0.000046 -19.826760 -8.202623 7.589545 7.292031 0.042614 1.447444 19.086709 17.284694 5.530777 0.000005 -0.000083 0.000033 0.506212 -1.093147 0.374783 1.250256 -2.621802 5.290038 -1.076571 0.108958 1.738451 -0.582540 0.143326 0.758344 0.000024 0.000023 -0.000009 
0.000000 0.000000 0.000000 0.000044 -60.400715 0.000038 0.292090 15.362233 -4.497341 0.916371 -5.552766 3.145015 -0.139380 -5.571229 0.550136 -0.500059 -1.374095 -0.018819 1.831835 11.074359 0.276192 -2.352675 -17.180446 -2.853408 0.511655 -19.376070 -2.125691 1.796286 -9.643818 5.043335 -0.006497 -0.003443 -0.029897 -0.006515 -0.003408 -0.029881 -0.006526 -0.003419 -0.029850 0.183836 -0.684196 1.550523 -0.485470 0.055564 0.028453 -13.413879 1.905783 0.092912 35.683569 0.770745 -0.988157 -3.077016 -3.117855 6.260395 -0.000004 -0.000071 0.000035 0.513846 0.049996 -0.036991 -0.976417 -0.077943 0.060135 -0.222289 11.104487 1.237604 -0.000010 0.000086 0.000009 0.613228 18.469175 -0.260278 0.000029 0.000072 -0.000035 -0.000015 0.000005 -0.000064 1.836504 -21.908528 3.617493 5.059037 -0.121782 -0.861406 -6.625295 30.336821 2.482327 -0.000011 0.000040 -0.000021 -0.000022 0.000005 -0.000062 -19.140521 -4.458749 7.854016 5.070852 0.010120 1.007255 17.950429 14.593995 4.935165 0.000005 -0.000083 0.000031 0.694305 -1.478368 0.509598 0.688070 -3.277889 6.531266 -1.047956 0.132622 2.107485 -0.555152 0.170949 0.903299 0.000026 0.000040 -0.000012 
0.000000 0.000000 0.000000 0.000046 -61.751235 0.000040 0.379621 15.835054 -3.896227 0.274668 -5.246304 2.853472 -0.153036 -6.119905 -0.141164 -0.043308 -2.088124 -0.057627 2.052421 10.922154 0.381221 -2.046745 -16.894283 -2.635127 0.544123 -18.673765 -1.713731 1.241279 -9.321941 4.891609 -0.006488 -0.003442 -0.029913 -0.006515 -0.003409 -0.029891 -0.006524 -0.003419 -0.029850 0.312413 -0.513297 1.112741 -0.786894 0.089943 0.046351 -15.840098 1.553950 -0.464211 39.370006 0.811973 -1.113066 -0.382203 -3.317632 6.101149 -0.000006 -0.000143 0.000067 0.767285 0.066022 -0.043880 -1.514208 -0.121317 0.092687 0.410952 10.504553 1.744378 -0.000009 0.000091 0.000010 0.380307 20.893902 -0.593825 0.000029 0.000079 -0.000037 -0.000019 0.000010 -0.000078 1.847154 -21.259507 1.779262 3.620869 -0.079417 -0.617637 -6.179186 30.507054 3.690726 -0.000011 0.000054 -0.000025 -0.000020 0.000009 -0.000120 -18.404266 -0.516490 8.536837 2.824984 -0.005359 0.561270 17.423748 11.485304 1.190193 0.000006 -0.000089 0.000034 0.873775 -1.980780 0.686327 0.102858 -3.838885 7.550562 -0.972673 0.150778 2.371103 -0.511840 0.187656 0.989543 0.000026 0.000051 -0.000015 
0.000000 0.000000 0.000000 0.000048 -63.083491 0.000043 0.447246 16.309757 -3.183448 -0.362756 -4.926249 2.530928 -0.175655 -6.677447 -0.898467 0.422343 -2.784332 -0.095546 2.264231 10.475047 0.582340 -1.705613 -16.650102 -2.404054 0.570930 -17.845718 -1.297346 0.569245 -8.771643 4.629733 -0.006481 -0.003443 -0.029992 -0.006509 -0.003406 -0.029900 -0.006520 -0.003419 -0.029850 0.476105 -0.317176 0.599021 -1.162712 0.132659 0.068923 -17.712810 1.294670 -1.295643 41.948556 0.835998 -1.201884 2.645320 -3.610207 6.110000 -0.000006 0.000002 0.000002 1.071230 0.085111 -0.051827 -2.155327 -0.173418 0.130961 1.156393 9.803555 2.201395 -0.000008 0.000094 0.000010 0.123514 23.409358 -0.912776 0.000027 0.000163 -0.000074 -0.000015 0.000014 -0.000153 1.724782 -20.054154 -0.178577 2.505301 -0.050787 -0.427881 -5.926752 30.069238 4.877401 -0.000013 0.000062 -0.000029 -0.000021 -0.000005 0.000001 -17.748677 3.200563 8.889582 0.705710 -0.003933 0.140177 17.451640 8.843539 -2.693943 0.000002 -0.000092 0.000035 1.015935 -2.606257 0.906699 -0.444470 -4.276267 8.310464 -0.865812 0.162796 2.522726 -0.462709 0.193174 1.016284 0.000026 0.000065 -0.000018 
0.000000 0.000000 0.000000 0.000050 -64.396417 0.000045 0.489387 16.777444 -2.386654 -0.930259 -4.637308 2.194173 -0.211520 -7.230905 -1.690802 0.846527 -3.416927 -0.129911 2.429921 9.761939 0.881065 -1.353124 -16.449256 -2.185192 0.589527 -16.908557 -0.902914 -0.144323 -8.007951 4.264355 -0.006501 -0.003438 -0.029862 -0.006530 -0.003409 -0.029971 -0.006518 -0.003418 -0.029850 0.674188 -0.106594 0.031256 -1.608792 0.183178 0.096077 -18.896268 1.230124 -2.213671 43.349127 0.847365 -1.250550 5.667493 -4.099166 6.325162 -0.000004 -0.000000 0.000004 1.401172 0.105167 -0.058886 -2.846176 -0.230039 0.171549 1.971466 9.096162 2.669342 -0.000006 0.000177 0.000019 -0.118303 25.915430 -1.289703 0.000024 -0.000013 0.000002 -0.000017 -0.000001 -0.000002 1.448512 -18.294749 -2.214341 1.948108 -0.037876 -0.332909 -6.008630 29.053173 6.044930 -0.000012 0.000072 -0.000030 -0.000022 -0.000000 -0.000013 -16.742383 6.319691 8.313175 -2.195885 0.023274 -0.435716 18.581118 7.182710 -3.601195 0.000002 -0.000093 0.000035 1.093371 -3.347896 1.167372 -0.895304 -4.557074 8.769942 -0.747001 0.167870 2.560089 -0.417992 0.187657 0.985132 0.000025 0.000123 -0.000031 
